<svg width="11" height="17" viewBox="0 0 11 17" fill="none" xmlns="http://www.w3.org/2000/svg">
<path d="M6.25418 17V15.7661C9.30769 15.5017 11 13.9153 11 11.3301C11 9.12673 9.76756 7.76555 7.34866 7.26613L6.25418 7.05069V4.00518C7.04515 4.14228 7.62458 4.81797 7.65217 5.59159H10.7425C10.7149 3.26094 8.98579 1.61578 6.25418 1.34159V0H4.92977V1.3318C1.95903 1.56682 0.248328 3.15323 0.248328 5.68952C0.248328 7.8341 1.48077 9.24424 3.83528 9.79263L4.92977 10.0472V13.2005C3.94565 13.0927 3.23746 12.4171 3.19147 11.5553H0C0.00919732 14.0622 1.82107 15.6192 4.92977 15.7857V17H6.25418ZM7.85452 11.7316C7.85452 12.5639 7.25669 13.1221 6.25418 13.2005V10.2823C7.33027 10.4977 7.85452 10.9775 7.85452 11.7316ZM3.47659 5.35657C3.47659 4.60253 4.07441 4.04435 4.92977 3.9856V6.76671C3.98244 6.56106 3.47659 6.07143 3.47659 5.35657Z" fill="#FD665E"/>
</svg>
